<svg xmlns="http://www.w3.org/2000/svg" viewBox="0 0 1600 1000">
<defs><radialGradient id="rg" cx="78%" cy="16%" r="70%"><stop offset="0" stop-color="#6B4A2A" stop-opacity=".32"/><stop offset=".55" stop-color="#19130F" stop-opacity=".08"/><stop offset="1" stop-color="#0B0A09" stop-opacity="0"/></radialGradient></defs>
<rect width="1600" height="1000" fill="#0B0A09"/><rect width="1600" height="1000" fill="url(#rg)"/>
<g opacity=".08" stroke="#D6A66A" stroke-width="1"><path d="M0 0V1000"/><path d="M80 0V1000"/><path d="M160 0V1000"/><path d="M240 0V1000"/><path d="M320 0V1000"/><path d="M400 0V1000"/><path d="M480 0V1000"/><path d="M560 0V1000"/><path d="M640 0V1000"/><path d="M720 0V1000"/><path d="M800 0V1000"/><path d="M880 0V1000"/><path d="M960 0V1000"/><path d="M1040 0V1000"/><path d="M1120 0V1000"/><path d="M1200 0V1000"/><path d="M1280 0V1000"/><path d="M1360 0V1000"/><path d="M1440 0V1000"/><path d="M1520 0V1000"/><path d="M1600 0V1000"/><path d="M0 0H1600"/><path d="M0 80H1600"/><path d="M0 160H1600"/><path d="M0 240H1600"/><path d="M0 320H1600"/><path d="M0 400H1600"/><path d="M0 480H1600"/><path d="M0 560H1600"/><path d="M0 640H1600"/><path d="M0 720H1600"/><path d="M0 800H1600"/><path d="M0 880H1600"/><path d="M0 960H1600"/></g>
<text x="62" y="70" fill="#D6A66A" font-family="Arial" font-size="18" font-weight="700" letter-spacing="5">AVANTIQO MUSIC STUDIO</text>
<text x="62" y="116" fill="#F6F2EA" font-family="Arial" font-size="40" font-weight="500">RECORD / PRODUCE / EDIT / MIX / PREMASTER / MASTER</text><rect x="60" y="160" width="720" height="400" rx="24" fill="#15120F" stroke="#3A3026"/><text x="84" y="192" fill="#D6A66A" font-family="Arial" font-size="12" font-weight="700" letter-spacing="2">RECORDING / PERFORMANCE</text><circle cx="235" cy="345" r="82" fill="#0E0C0A" stroke="#D6A66A" stroke-opacity=".4"/><rect x="226" y="248" width="18" height="96" rx="9" fill="#F6F2EA" opacity=".72"/><path d="M235 344V410 M200 410H270" stroke="#D6A66A" stroke-width="3"/><path d="M360 250 C390 215 420 215 450 250 S510 285 540 250 S600 215 630 250" fill="none" stroke="#D6A66A" stroke-width="3" opacity=".7"/><text x="350" y="330" fill="#F6F2EA" font-family="Arial" font-size="15">IMMUTABLE SOURCE TAKES</text><text x="350" y="365" fill="#8E857B" font-family="Arial" font-size="10">SOURCE · NOISE · LATENCY · PHASE · TIMING · COMPING</text><rect x="810" y="160" width="730" height="400" rx="24" fill="#15120F" stroke="#3A3026"/><text x="834" y="192" fill="#D6A66A" font-family="Arial" font-size="12" font-weight="700" letter-spacing="2">MULTITRACK PRODUCTION / MIX</text><text x="840" y="232" fill="#8E857B" font-family="Arial" font-size="9">VOCALS</text><rect x="920" y="220" width="560" height="18" rx="4" fill="#0E0C0A" stroke="#2D251E"/><rect x="930" y="224" width="52" height="10" rx="3" fill="#D6A66A" opacity="0.2"/><rect x="1034" y="224" width="71" height="10" rx="3" fill="#D6A66A" opacity="0.32"/><rect x="1138" y="224" width="90" height="10" rx="3" fill="#D6A66A" opacity="0.44"/><rect x="1242" y="224" width="109" height="10" rx="3" fill="#D6A66A" opacity="0.56"/><rect x="1346" y="224" width="66" height="10" rx="3" fill="#D6A66A" opacity="0.2"/><text x="840" y="270" fill="#8E857B" font-family="Arial" font-size="9">DRUMS</text><rect x="920" y="258" width="560" height="18" rx="4" fill="#0E0C0A" stroke="#2D251E"/><rect x="930" y="262" width="81" height="10" rx="3" fill="#D6A66A" opacity="0.32"/><rect x="1034" y="262" width="100" height="10" rx="3" fill="#D6A66A" opacity="0.44"/><rect x="1138" y="262" width="57" height="10" rx="3" fill="#D6A66A" opacity="0.56"/><rect x="1242" y="262" width="76" height="10" rx="3" fill="#D6A66A" opacity="0.2"/><rect x="1346" y="262" width="95" height="10" rx="3" fill="#D6A66A" opacity="0.32"/><text x="840" y="308" fill="#8E857B" font-family="Arial" font-size="9">BASS</text><rect x="920" y="296" width="560" height="18" rx="4" fill="#0E0C0A" stroke="#2D251E"/><rect x="930" y="300" width="110" height="10" rx="3" fill="#D6A66A" opacity="0.44"/><rect x="1034" y="300" width="67" height="10" rx="3" fill="#D6A66A" opacity="0.56"/><rect x="1138" y="300" width="86" height="10" rx="3" fill="#D6A66A" opacity="0.2"/><rect x="1242" y="300" width="105" height="10" rx="3" fill="#D6A66A" opacity="0.32"/><rect x="1346" y="300" width="62" height="10" rx="3" fill="#D6A66A" opacity="0.44"/><text x="840" y="346" fill="#8E857B" font-family="Arial" font-size="9">GUITARS</text><rect x="920" y="334" width="560" height="18" rx="4" fill="#0E0C0A" stroke="#2D251E"/><rect x="930" y="338" width="77" height="10" rx="3" fill="#D6A66A" opacity="0.56"/><rect x="1034" y="338" width="96" height="10" rx="3" fill="#D6A66A" opacity="0.2"/><rect x="1138" y="338" width="53" height="10" rx="3" fill="#D6A66A" opacity="0.32"/><rect x="1242" y="338" width="72" height="10" rx="3" fill="#D6A66A" opacity="0.44"/><rect x="1346" y="338" width="91" height="10" rx="3" fill="#D6A66A" opacity="0.56"/><text x="840" y="384" fill="#8E857B" font-family="Arial" font-size="9">KEYS</text><rect x="920" y="372" width="560" height="18" rx="4" fill="#0E0C0A" stroke="#2D251E"/><rect x="930" y="376" width="106" height="10" rx="3" fill="#D6A66A" opacity="0.2"/><rect x="1034" y="376" width="63" height="10" rx="3" fill="#D6A66A" opacity="0.32"/><rect x="1138" y="376" width="82" height="10" rx="3" fill="#D6A66A" opacity="0.44"/><rect x="1242" y="376" width="101" height="10" rx="3" fill="#D6A66A" opacity="0.56"/><rect x="1346" y="376" width="58" height="10" rx="3" fill="#D6A66A" opacity="0.2"/><text x="840" y="422" fill="#8E857B" font-family="Arial" font-size="9">STRINGS</text><rect x="920" y="410" width="560" height="18" rx="4" fill="#0E0C0A" stroke="#2D251E"/><rect x="930" y="414" width="73" height="10" rx="3" fill="#D6A66A" opacity="0.32"/><rect x="1034" y="414" width="92" height="10" rx="3" fill="#D6A66A" opacity="0.44"/><rect x="1138" y="414" width="111" height="10" rx="3" fill="#D6A66A" opacity="0.56"/><rect x="1242" y="414" width="68" height="10" rx="3" fill="#D6A66A" opacity="0.2"/><rect x="1346" y="414" width="87" height="10" rx="3" fill="#D6A66A" opacity="0.32"/><text x="840" y="460" fill="#8E857B" font-family="Arial" font-size="9">FX</text><rect x="920" y="448" width="560" height="18" rx="4" fill="#0E0C0A" stroke="#2D251E"/><rect x="930" y="452" width="102" height="10" rx="3" fill="#D6A66A" opacity="0.44"/><rect x="1034" y="452" width="59" height="10" rx="3" fill="#D6A66A" opacity="0.56"/><rect x="1138" y="452" width="78" height="10" rx="3" fill="#D6A66A" opacity="0.2"/><rect x="1242" y="452" width="97" height="10" rx="3" fill="#D6A66A" opacity="0.32"/><rect x="1346" y="452" width="54" height="10" rx="3" fill="#D6A66A" opacity="0.44"/><text x="840" y="498" fill="#8E857B" font-family="Arial" font-size="9">MASTER</text><rect x="920" y="486" width="560" height="18" rx="4" fill="#0E0C0A" stroke="#2D251E"/><rect x="930" y="490" width="69" height="10" rx="3" fill="#D6A66A" opacity="0.56"/><rect x="1034" y="490" width="88" height="10" rx="3" fill="#D6A66A" opacity="0.2"/><rect x="1138" y="490" width="107" height="10" rx="3" fill="#D6A66A" opacity="0.32"/><rect x="1242" y="490" width="64" height="10" rx="3" fill="#D6A66A" opacity="0.44"/><rect x="1346" y="490" width="83" height="10" rx="3" fill="#D6A66A" opacity="0.56"/><rect x="60" y="600" width="540" height="330" rx="24" fill="#15120F" stroke="#3A3026"/><text x="84" y="632" fill="#D6A66A" font-family="Arial" font-size="12" font-weight="700" letter-spacing="2">MIX ARCHITECTURE</text><rect x="90" y="750" width="28" height="70" rx="5" fill="#211B16"/><rect x="96" y="760" width="16" height="52" rx="4" fill="#D6A66A" opacity=".55"/><text x="104" y="860" text-anchor="middle" fill="#8E857B" font-family="Arial" font-size="8">VOX</text><rect x="148" y="723" width="28" height="97" rx="5" fill="#211B16"/><rect x="154" y="733" width="16" height="79" rx="4" fill="#D6A66A" opacity=".55"/><text x="162" y="860" text-anchor="middle" fill="#8E857B" font-family="Arial" font-size="8">DRM</text><rect x="206" y="696" width="28" height="124" rx="5" fill="#211B16"/><rect x="212" y="706" width="16" height="106" rx="4" fill="#D6A66A" opacity=".55"/><text x="220" y="860" text-anchor="middle" fill="#8E857B" font-family="Arial" font-size="8">BAS</text><rect x="264" y="669" width="28" height="151" rx="5" fill="#211B16"/><rect x="270" y="679" width="16" height="133" rx="4" fill="#D6A66A" opacity=".55"/><text x="278" y="860" text-anchor="middle" fill="#8E857B" font-family="Arial" font-size="8">GTR</text><rect x="322" y="642" width="28" height="178" rx="5" fill="#211B16"/><rect x="328" y="652" width="16" height="160" rx="4" fill="#D6A66A" opacity=".55"/><text x="336" y="860" text-anchor="middle" fill="#8E857B" font-family="Arial" font-size="8">KEY</text><rect x="380" y="725" width="28" height="95" rx="5" fill="#211B16"/><rect x="386" y="735" width="16" height="77" rx="4" fill="#D6A66A" opacity=".55"/><text x="394" y="860" text-anchor="middle" fill="#8E857B" font-family="Arial" font-size="8">FX</text><rect x="438" y="698" width="28" height="122" rx="5" fill="#211B16"/><rect x="444" y="708" width="16" height="104" rx="4" fill="#D6A66A" opacity=".55"/><text x="452" y="860" text-anchor="middle" fill="#8E857B" font-family="Arial" font-size="8">BUS</text><rect x="496" y="671" width="28" height="149" rx="5" fill="#211B16"/><rect x="502" y="681" width="16" height="131" rx="4" fill="#D6A66A" opacity=".55"/><text x="510" y="860" text-anchor="middle" fill="#8E857B" font-family="Arial" font-size="8">MST</text><rect x="630" y="600" width="420" height="330" rx="24" fill="#15120F" stroke="#3A3026"/><text x="654" y="632" fill="#D6A66A" font-family="Arial" font-size="12" font-weight="700" letter-spacing="2">PHASE / IMAGE / DEPTH</text><circle cx="840" cy="755" r="105" fill="#0E0C0A" stroke="#3A3026"/><circle cx="840" cy="755" r="72" fill="none" stroke="#D6A66A" stroke-opacity=".32"/><path d="M840 650V860 M735 755H945 M766 681L914 829 M914 681L766 829" stroke="#4B4035" stroke-opacity=".5"/><path d="M840 755 C780 690 762 742 840 816 C918 742 900 690 840 755" fill="none" stroke="#D6A66A" stroke-width="2"/><rect x="1080" y="600" width="460" height="330" rx="24" fill="#15120F" stroke="#3A3026"/><text x="1104" y="632" fill="#D6A66A" font-family="Arial" font-size="12" font-weight="700" letter-spacing="2">PREMASTER LISTEN / MASTERING</text><text x="1110" y="670" fill="#8E857B" font-family="Arial" font-size="9">TONAL BALANCE</text><rect x="1245" y="660" width="220" height="9" rx="5" fill="#211B16"/><rect x="1245" y="660" width="202.4" height="9" rx="5" fill="#D6A66A" opacity=".72"/><text x="1110" y="712" fill="#8E857B" font-family="Arial" font-size="9">DYNAMICS</text><rect x="1245" y="702" width="220" height="9" rx="5" fill="#211B16"/><rect x="1245" y="702" width="193.60000000000002" height="9" rx="5" fill="#D6A66A" opacity=".72"/><text x="1110" y="754" fill="#8E857B" font-family="Arial" font-size="9">VOCAL DEPTH</text><rect x="1245" y="744" width="220" height="9" rx="5" fill="#211B16"/><rect x="1245" y="744" width="206.8" height="9" rx="5" fill="#D6A66A" opacity=".72"/><text x="1110" y="796" fill="#8E857B" font-family="Arial" font-size="9">TRANSLATION</text><rect x="1245" y="786" width="220" height="9" rx="5" fill="#211B16"/><rect x="1245" y="786" width="200.20000000000002" height="9" rx="5" fill="#D6A66A" opacity=".72"/><text x="1110" y="838" fill="#8E857B" font-family="Arial" font-size="9">TRUE PEAK</text><rect x="1245" y="828" width="220" height="9" rx="5" fill="#211B16"/><rect x="1245" y="828" width="213.4" height="9" rx="5" fill="#D6A66A" opacity=".72"/></svg>